<svg width="24" height="24" viewBox="0 0 24 24" xmlns="http://www.w3.org/2000/svg" xmlns:xlink="http://www.w3.org/1999/xlink" fill="none" overflow="hidden"><path d="M5.5 18.5 18.5 18.5 18.5 5.5 5.5 5.5 5.5 18.5ZM14.94 14.57 14.94 8.4 16.4 8.4 16.4 15.4 14.94 15.4 14.94 14.57ZM7.45999 14.22 9.73001 8.4 11.24 8.4 13.54 14.28 13.97 15.4 12.38 15.4 12.03 14.37 11.85 13.86 9.09 13.86 8.89999 14.42 8.57001 15.4 6.98999 15.4 7.45999 14.22Z" fill="#000000"/><path d="M10.47 9.87997 9.54001 12.57 11.41 12.57 10.47 9.87997Z" fill="#000000"/><path d="M22.5 10.87C22.87 10.87 23.17 10.56 23.15 10.18 23.13 9.82999 22.82 9.55999 22.46 9.55999L22.4 9.55999C22.18 9.55999 22 9.37999 22 9.15999L22 7.68999C22 7.46999 22.18 7.28999 22.4 7.28999L22.46 7.28999C22.81 7.28999 23.13 7.02999 23.15 6.66999 23.17 6.28999 22.87 5.97999 22.5 5.97999L22.4 5.97999C22.18 5.97999 22 5.79999 22 5.57999L22 4.97999C22 3.32999 20.65 1.97999 19 1.97999L18.4 1.97999C18.18 1.97999 18 1.79999 18 1.57999L18 1.51999C18 1.16999 17.74 0.849986 17.38 0.829986 17 0.809986 16.69 1.10999 16.69 1.47999L16.69 1.57999C16.69 1.79999 16.51 1.97999 16.29 1.97999L14.82 1.97999C14.6 1.97999 14.42 1.79999 14.42 1.57999L14.42 1.51999C14.42 1.16999 14.16 0.849986 13.8 0.829986 13.42 0.809986 13.11 1.10999 13.11 1.47999L13.11 1.57999C13.11 1.79999 12.93 1.97999 12.71 1.97999L11.24 1.97999C11.02 1.97999 10.84 1.79999 10.84 1.57999L10.84 1.51999C10.84 1.16999 10.58 0.849986 10.22 0.829986 9.84 0.809986 9.53 1.10999 9.53 1.47999L9.53 1.57999C9.53 1.79999 9.35 1.97999 9.13 1.97999L7.66 1.97999C7.44 1.97999 7.26001 1.79999 7.26001 1.57999L7.26001 1.51999C7.26001 1.16999 7.00001 0.849986 6.64001 0.829986 6.26001 0.809986 5.95001 1.10999 5.95001 1.47999L5.95001 1.57999C5.95001 1.79999 5.76999 1.97999 5.54999 1.97999L4.95001 1.97999C3.30001 1.97999 1.95001 3.32999 1.95001 4.97999L1.95001 5.57999C1.95001 5.79999 1.76999 5.97999 1.54999 5.97999L1.48999 5.97999C1.13999 5.97999 0.819987 6.23999 0.799987 6.59999 0.779987 6.97999 1.08001 7.28999 1.45001 7.28999L1.54999 7.28999C1.76999 7.28999 1.95001 7.46999 1.95001 7.68999L1.95001 9.15999C1.95001 9.37999 1.76999 9.55999 1.54999 9.55999L1.48999 9.55999C1.13999 9.55999 0.819987 9.81999 0.799987 10.18 0.779987 10.56 1.08001 10.87 1.45001 10.87L1.54999 10.87C1.76999 10.87 1.95001 11.05 1.95001 11.27L1.95001 12.74C1.95001 12.96 1.76999 13.14 1.54999 13.14L1.48999 13.14C1.13999 13.14 0.819987 13.4 0.799987 13.76 0.779987 14.14 1.08001 14.45 1.45001 14.45L1.54999 14.45C1.76999 14.45 1.95001 14.63 1.95001 14.85L1.95001 16.32C1.95001 16.54 1.76999 16.72 1.54999 16.72L1.48999 16.72C1.13999 16.72 0.819987 16.98 0.799987 17.34 0.779987 17.72 1.08001 18.03 1.45001 18.03L1.54999 18.03C1.76999 18.03 1.95001 18.21 1.95001 18.43L1.95001 19.03C1.95001 20.68 3.30001 22.03 4.95001 22.03L5.54999 22.03C5.76999 22.03 5.95001 22.21 5.95001 22.43L5.95001 22.49C5.95001 22.84 6.21001 23.16 6.57001 23.18 6.95001 23.2 7.26001 22.9 7.26001 22.53L7.26001 22.43C7.26001 22.21 7.44 22.03 7.66 22.03L9.13 22.03C9.35 22.03 9.53 22.21 9.53 22.43L9.53 22.49C9.53 22.84 9.78999 23.16 10.15 23.18 10.53 23.2 10.84 22.9 10.84 22.53L10.84 22.43C10.84 22.21 11.02 22.03 11.24 22.03L12.71 22.03C12.93 22.03 13.11 22.21 13.11 22.43L13.11 22.49C13.11 22.84 13.37 23.16 13.73 23.18 14.11 23.2 14.42 22.9 14.42 22.53L14.42 22.43C14.42 22.21 14.6 22.03 14.82 22.03L16.29 22.03C16.51 22.03 16.69 22.21 16.69 22.43L16.69 22.49C16.69 22.84 16.95 23.16 17.31 23.18 17.69 23.2 18 22.9 18 22.53L18 22.43C18 22.21 18.18 22.03 18.4 22.03L19 22.03C20.65 22.03 22 20.68 22 19.03L22 18.43C22 18.21 22.18 18.03 22.4 18.03L22.46 18.03C22.81 18.03 23.13 17.77 23.15 17.41 23.17 17.03 22.87 16.72 22.5 16.72L22.4 16.72C22.18 16.72 22 16.54 22 16.32L22 14.85C22 14.63 22.18 14.45 22.4 14.45L22.46 14.45C22.81 14.45 23.13 14.19 23.15 13.83 23.17 13.45 22.87 13.14 22.5 13.14L22.4 13.14C22.18 13.14 22 12.96 22 12.74L22 11.27C22 11.05 22.18 10.87 22.4 10.87L22.5 10.87ZM20 19C20 19.55 19.55 20 19 20L5 20C4.45 20 4 19.55 4 19L4 4.99999C4 4.44999 4.45 3.99999 5 3.99999L19 3.99999C19.55 3.99999 20 4.44999 20 4.99999L20 19Z" fill="#000000"/></svg>