<svg width="24" height="24" viewBox="0 0 24 24" xmlns="http://www.w3.org/2000/svg" xmlns:xlink="http://www.w3.org/1999/xlink" fill="none" overflow="hidden"><defs><clipPath id="clip0_3056_5647"><rect x="0" y="0" width="24" height="24" fill="#FFFFFF"/></clipPath></defs><g clip-path="url(#clip0_3056_5647)"><path d="M12 1.65002 1 8.00002 1 22 23 22 23 8.00002 12 1.65002ZM2.3 20.7 2.3 15 4 15C4.55 15 5 15.45 5 16L5 20.7 2.3 20.7ZM7.3 15 11.35 15 11.35 20.7 6.3 20.7 6.3 16C6.3 15.45 6.75 15 7.3 15ZM12.65 20.7 12.65 15 16.7 15C17.25 15 17.7 15.45 17.7 16L17.7 20.7 12.65 20.7ZM21.7 20.7 19 20.7 19 16C19 15.45 19.45 15 20 15L21.7 15 21.7 20.7ZM21.7 12.3 21.7 13.7 2.3 13.7 2.3 11.3 21.7 11.3 21.7 12.3ZM2.3 10 2.3 8.75002 12 3.15002 21.7 8.75002 21.7 10 2.3 10Z" fill="#000000"/><path d="M12 8.65002C12.8284 8.65002 13.5 7.97845 13.5 7.15002 13.5 6.3216 12.8284 5.65002 12 5.65002 11.1716 5.65002 10.5 6.3216 10.5 7.15002 10.5 7.97845 11.1716 8.65002 12 8.65002Z" fill="#000000"/></g></svg>