<svg width="24" height="24" viewBox="0 0 24 24" xmlns="http://www.w3.org/2000/svg" xmlns:xlink="http://www.w3.org/1999/xlink" fill="none" overflow="hidden"><path d="M19.3 2.39999 19.3 2.04001C19.3 1.69001 19.04 1.36994 18.68 1.34994 18.3 1.32994 17.99 1.62997 17.99 1.99997L17.99 2.39999C17.99 2.72999 17.72 2.99997 17.39 2.99997L6.59999 2.99997C6.26999 2.99997 5.99999 2.72999 5.99999 2.39999L5.99999 2.04001C5.99999 1.69001 5.73999 1.36994 5.37999 1.34994 4.99999 1.32994 4.68999 1.62997 4.68999 1.99997L4.68999 2.39999C4.68999 2.72999 4.41999 2.99997 4.08999 2.99997L1.98999 2.99997 1.98999 20.5C1.98999 21.33 2.65999 22 3.48999 22L20.49 22C21.32 22 21.99 21.33 21.99 20.5L21.99 2.99997 19.89 2.99997C19.56 2.99997 19.29 2.72999 19.29 2.39999L19.3 2.39999ZM20.7 4.30002 20.7 6.99997 3.29999 6.99997 3.29999 4.30002 20.7 4.30002ZM3.29999 20.6999 3.29999 8.30002 20.7 8.30002 20.7 20.6999 3.29999 20.6999Z" fill="#024731"/><path d="M5.99999 12C6.55228 12 6.99999 11.5523 6.99999 11 6.99999 10.4477 6.55228 10 5.99999 10 5.44771 10 4.99999 10.4477 4.99999 11 4.99999 11.5523 5.44771 12 5.99999 12Z" fill="#024731"/><path d="M9.99999 12C10.5523 12 11 11.5523 11 11 11 10.4477 10.5523 10 9.99999 10 9.44771 10 8.99999 10.4477 8.99999 11 8.99999 11.5523 9.44771 12 9.99999 12Z" fill="#024731"/><path d="M14 12C14.5523 12 15 11.5523 15 11 15 10.4477 14.5523 10 14 10 13.4477 10 13 10.4477 13 11 13 11.5523 13.4477 12 14 12Z" fill="#024731"/><path d="M18 12C18.5523 12 19 11.5523 19 11 19 10.4477 18.5523 10 18 10 17.4477 10 17 10.4477 17 11 17 11.5523 17.4477 12 18 12Z" fill="#024731"/><path d="M5.99999 15.5C6.55228 15.5 6.99999 15.0523 6.99999 14.5 6.99999 13.9477 6.55228 13.5 5.99999 13.5 5.44771 13.5 4.99999 13.9477 4.99999 14.5 4.99999 15.0523 5.44771 15.5 5.99999 15.5Z" fill="#024731"/><path d="M9.99999 15.5C10.5523 15.5 11 15.0523 11 14.5 11 13.9477 10.5523 13.5 9.99999 13.5 9.44771 13.5 8.99999 13.9477 8.99999 14.5 8.99999 15.0523 9.44771 15.5 9.99999 15.5Z" fill="#024731"/><path d="M14 15.5C14.5523 15.5 15 15.0523 15 14.5 15 13.9477 14.5523 13.5 14 13.5 13.4477 13.5 13 13.9477 13 14.5 13 15.0523 13.4477 15.5 14 15.5Z" fill="#024731"/><path d="M18 15.5C18.5523 15.5 19 15.0523 19 14.5 19 13.9477 18.5523 13.5 18 13.5 17.4477 13.5 17 13.9477 17 14.5 17 15.0523 17.4477 15.5 18 15.5Z" fill="#024731"/><path d="M5.99999 19C6.55228 19 6.99999 18.5523 6.99999 18 6.99999 17.4477 6.55228 17 5.99999 17 5.44771 17 4.99999 17.4477 4.99999 18 4.99999 18.5523 5.44771 19 5.99999 19Z" fill="#024731"/><path d="M9.99999 19C10.5523 19 11 18.5523 11 18 11 17.4477 10.5523 17 9.99999 17 9.44771 17 8.99999 17.4477 8.99999 18 8.99999 18.5523 9.44771 19 9.99999 19Z" fill="#024731"/><path d="M14 19C14.5523 19 15 18.5523 15 18 15 17.4477 14.5523 17 14 17 13.4477 17 13 17.4477 13 18 13 18.5523 13.4477 19 14 19Z" fill="#024731"/></svg>