<svg width="24" height="25" viewBox="0 0 24 25" xmlns="http://www.w3.org/2000/svg" xmlns:xlink="http://www.w3.org/1999/xlink" fill="none" overflow="hidden"><path d="M20 12.02 9 12.02C7.34 12.02 6 13.36 6 15.02L6 18.02C6 19.68 7.34 21.02 9 21.02L18.68 21.02C19.49 21.02 20.25 21.35 20.82 21.92 21.53 22.64 22.26 23.34 23 24.04L23 15.02C23 13.36 21.66 12.02 20 12.02ZM21.7 20.96C20.88 20.16 19.81 19.72 18.68 19.72L9 19.72C8.06 19.72 7.3 18.96 7.3 18.02L7.3 15.02C7.3 14.08 8.06 13.32 9 13.32L20 13.32C20.94 13.32 21.7 14.08 21.7 15.02L21.7 20.96Z" fill="#000000"/><path d="M18 7.52002 18 5.52002C18 4.14002 16.88 3.02002 15.5 3.02002L5.32 3.02002C4.51 3.02002 3.75 2.69 3.18 2.12 2.47 1.4 1.74 0.7 1 0L1 7.52002C1 8.90002 2.12 10.02 3.5 10.02L15.5 10.02C16.88 10.02 18 8.90002 18 7.52002ZM2.3 7.52002 2.3 3.08002C3.12 3.88002 4.19 4.32001 5.32 4.32001L15.5 4.32001C16.16 4.32001 16.7 4.86002 16.7 5.52002L16.7 7.52002C16.7 8.18002 16.16 8.72003 15.5 8.72003L3.5 8.72003C2.84 8.72003 2.3 8.18002 2.3 7.52002Z" fill="#000000"/></svg>