<svg width="25" height="24" viewBox="0 0 25 24" xmlns="http://www.w3.org/2000/svg" xmlns:xlink="http://www.w3.org/1999/xlink" fill="none" overflow="hidden"><path d="M14.44 5.98999C17.06 5.98999 19.2 8.11998 19.19 10.79L19.19 10.92 19.17 11.15C19.15 11.61 19.45 12.02 19.89 12.14L20.11 12.21C21.67 12.67 22.72 14.06 22.72 15.68 22.72 17.55 21.3 19.1 19.43 19.27L19.13 19.31 4.36003 19.31 3.99003 19.28C2.50003 19.18 1.33003 17.94 1.33003 16.45 1.33003 15.05 2.34003 13.87 3.73003 13.65L4.01003 13.6C4.54003 13.51 4.91003 13.02 4.84003 12.49 4.80003 12.17 4.77003 11.89 4.77003 11.86 4.77003 10.29 6.05003 9.01001 7.62003 9.01001 7.94003 9.01001 8.26003 9.07001 8.60003 9.20001L8.85003 9.28998C9.32003 9.46998 9.86003 9.26 10.09 8.81L10.21 8.57001C11.03 6.97001 12.65 5.97998 14.44 5.97998M14.44 4.69C12.09 4.69 10.06 6.02999 9.05003 7.98999 8.60003 7.81999 8.12003 7.71997 7.62003 7.71997 5.33003 7.71997 3.47003 9.58 3.47003 11.87 3.47003 12.04 3.50003 12.21 3.52003 12.37 1.54003 12.69 0.0300293 14.39 0.0300293 16.46 0.0300293 18.66 1.74003 20.44 3.90003 20.58L3.90003 20.61 19.56 20.61 19.56 20.56C22.06 20.32 24.03 18.24 24.03 15.67 24.03 13.43 22.53 11.56 20.49 10.96 20.49 10.89 20.5 10.81 20.5 10.74 20.5 7.39999 17.79 4.67999 14.44 4.67999L14.44 4.69Z" fill="#000000"/></svg>