<svg width="24" height="24" viewBox="0 0 24 24" xmlns="http://www.w3.org/2000/svg" xmlns:xlink="http://www.w3.org/1999/xlink" fill="none" overflow="hidden"><path d="M19.53 13.09 19.52 13.09C19.49 12.44 19.18 11.82 18.65 11.27 18.33 11.55 17.99 11.83 17.64 12.09 18.01 12.45 18.21 12.82 18.23 13.15 18.15 14.73 15.39 16.39 11.29 16.39 7.19001 16.39 4.42001 14.72 4.35001 13.14 4.35001 13.01 4.39001 12.88 4.45001 12.74L3.72001 11.48C3.31001 11.97 3.08001 12.51 3.05001 13.07L3.05001 18.68C3.04001 21.05 6.73001 22.98 11.29 22.98 15.85 22.98 19.54 21.06 19.54 18.68 19.54 18.68 19.54 13.15 19.54 13.13 19.54 13.11 19.54 13.09 19.54 13.07L19.53 13.09ZM18.23 18.7C18.23 19.95 15.59 21.7 11.28 21.7 6.97001 21.7 4.33001 19.95 4.33001 18.7L4.33001 18.26C5.78001 19.53 8.32001 20.36 11.28 20.36 14.24 20.36 16.78 19.53 18.23 18.26L18.23 18.7ZM18.23 15.75C18.23 17.35 15.44 19.06 11.28 19.06 7.12001 19.06 4.33001 17.35 4.33001 15.75L4.33001 15.59C5.78001 16.86 8.32001 17.69 11.28 17.69 14.24 17.69 16.78 16.86 18.23 15.59L18.23 15.75Z" fill="#000000"/><path d="M5.91001 12.3C6.46001 13.26 7.66001 13.73 9.19001 13.73 10.93 13.73 13.1 13.11 15.21 11.9 19.16 9.61999 21.39 6.10999 20.21 4.04999L18.62 1.32001C18.04 0.440007 16.88 0 15.42 0 13.68 0 11.51 0.620002 9.40001 1.83 5.53001 4.07 3.31001 7.49 4.35001 9.56L5.92001 12.3 5.91001 12.3ZM18.53 7.20001C17.71 8.49001 16.26 9.79 14.55 10.78 12.72 11.84 10.77 12.44 9.18001 12.44 8.10001 12.44 7.32001 12.16 7.03001 11.66L6.71001 11.11C7.08001 11.18 7.47001 11.22 7.90001 11.22 8.01001 11.22 8.13001 11.22 8.24001 11.22 9.96001 11.14 11.92 10.52 13.77 9.45001 16.33 7.97001 18.12 5.99 18.74 4.16L19.07 4.72C19.38 5.26 19.18 6.18999 18.53 7.20999L18.53 7.20001ZM6.07001 6.54001C6.89001 5.25001 8.34001 3.95001 10.05 2.96001 11.88 1.90001 13.83 1.3 15.42 1.3 16.46 1.3 17.22 1.57 17.53 2.03 18.25 3.43 16.69 6.24999 13.14 8.29999 11.47 9.25999 9.72001 9.82999 8.20001 9.89999 6.89001 9.94999 5.93001 9.61 5.51001 8.97 5.24001 8.43 5.44001 7.53001 6.07001 6.54001Z" fill="#000000"/></svg>