<svg width="24" height="24" viewBox="0 0 24 24" xmlns="http://www.w3.org/2000/svg" xmlns:xlink="http://www.w3.org/1999/xlink" fill="none" overflow="hidden"><path d="M18 5 13 5 13 6.3 18 6.3 18 5Z" fill="#000000"/><path d="M18 10 6 10 6 11.3 18 11.3 18 10Z" fill="#000000"/><path d="M18 13 6 13 6 14.3 18 14.3 18 13Z" fill="#000000"/><path d="M13 16 6 16 6 17.3 13 17.3 13 16Z" fill="#000000"/><path d="M3 2 3 22 15.41 22C15.94 22 16.45 21.79 16.82 21.41L20.41 17.82C20.79 17.44 21 16.94 21 16.41L21 2 3 2ZM19.7 16.5C19.7 16.78 19.48 17 19.2 17L16 17 16 20.2C16 20.48 15.78 20.7 15.5 20.7L4.3 20.7 4.3 3.3 19.7 3.3 19.7 16.5Z" fill="#000000"/></svg>