<svg width="24" height="24" viewBox="0 0 24 24" xmlns="http://www.w3.org/2000/svg" xmlns:xlink="http://www.w3.org/1999/xlink" fill="none" overflow="hidden"><path d="M10.37 15.51 16.53 9.35001C16.78 9.10001 16.78 8.67999 16.53 8.42999 16.28 8.17999 15.86 8.17999 15.61 8.42999L10.37 13.67 8.45 11.75C8.2 11.5 7.78 11.5 7.53 11.75 7.28 12 7.28 12.42 7.53 12.67L10.37 15.51Z" fill="#000000"/><path d="M3 2 3 22 15.41 22C15.94 22 16.45 21.79 16.82 21.41L20.41 17.82C20.79 17.44 21 16.94 21 16.41L21 2 3 2ZM19.7 16.5C19.7 16.78 19.48 17 19.2 17L16 17 16 20.2C16 20.48 15.78 20.7 15.5 20.7L4.3 20.7 4.3 3.3 19.7 3.3 19.7 16.5Z" fill="#000000"/></svg>