<svg width="24" height="24" viewBox="0 0 24 24" xmlns="http://www.w3.org/2000/svg" xmlns:xlink="http://www.w3.org/1999/xlink" fill="none" overflow="hidden"><path d="M12 6.67999C8.95998 6.67999 6.49998 9.13999 6.49998 12.18 6.49998 15.22 8.95998 17.68 12 17.68 15.04 17.68 17.5 15.22 17.5 12.18 17.5 9.13999 15.04 6.67999 12 6.67999ZM12 16.38C9.67999 16.38 7.79998 14.5 7.79998 12.18 7.79998 9.85999 9.67999 7.97998 12 7.97998 14.32 7.97998 16.2 9.85999 16.2 12.18 16.2 14.5 14.32 16.38 12 16.38Z" fill="#000000"/><path d="M22.92 10.82 22.72 9.69C22.65 9.3 22.38 8.96001 22.01 8.82001L20.23 8.12C20.17 8.1 20.12 8.04998 20.09 7.97998 19.96 7.72998 19.82 7.49 19.67 7.25 19.63 7.19 19.61 7.12 19.62 7.06L19.9 5.15997C19.96 4.75997 19.81 4.36999 19.5 4.10999L18.62 3.38C18.32 3.12 17.89 3.03998 17.51 3.16998L15.69 3.78003C15.61 3.80003 15.54 3.78002 15.49 3.77002 15.23 3.66002 14.97 3.56998 14.7 3.47998 14.65 3.45998 14.58 3.43 14.54 3.37L13.54 1.72998C13.33 1.38998 12.96 1.17999 12.56 1.17999L11.42 1.17999C11.02 1.17999 10.65 1.38998 10.44 1.72998L9.43998 3.37C9.40998 3.42 9.34998 3.45999 9.27998 3.48999 9.00998 3.56999 8.74998 3.67003 8.48998 3.78003 8.41998 3.81003 8.34999 3.80998 8.29998 3.78998L6.47998 3.17999C6.09998 3.04999 5.68998 3.13001 5.37998 3.39001L4.49998 4.13C4.18998 4.39 4.03998 4.77999 4.09998 5.17999L4.37998 7.07001C4.38998 7.15001 4.35998 7.22001 4.32998 7.26001 4.17998 7.49001 4.03998 7.73999 3.90998 7.98999 3.88998 8.03999 3.83998 8.1 3.76998 8.13L1.97998 8.83002C1.60998 8.98002 1.33998 9.30001 1.26998 9.70001L1.06998 10.83C0.999985 11.22 1.13998 11.63 1.43998 11.89L2.87998 13.16C2.93998 13.21 2.95998 13.3 2.96998 13.34 3.00998 13.62 3.05998 13.9 3.11998 14.16 3.12998 14.21 3.13998 14.29 3.09998 14.36L2.17998 16.04C1.98998 16.39 1.98998 16.81 2.19998 17.16L2.76998 18.15C2.96998 18.5 3.33998 18.72 3.73998 18.73L5.64998 18.78C5.72998 18.78 5.78998 18.82 5.82998 18.86 6.03998 19.05 6.25998 19.23 6.47998 19.4 6.53998 19.45 6.57998 19.5 6.58998 19.56L6.96998 21.44C7.04998 21.83 7.31998 22.15 7.69998 22.29L8.77998 22.68C9.14998 22.82 9.57998 22.75 9.88999 22.5L11.39 21.31C11.44 21.27 11.49 21.24 11.57 21.25 11.83 21.25 12.17 21.25 12.43 21.25 12.5 21.25 12.56 21.27 12.61 21.31L14.11 22.5C14.32 22.67 14.57 22.75 14.82 22.75 14.95 22.75 15.09 22.73 15.22 22.68L16.29 22.29C16.67 22.15 16.94 21.83 17.02 21.44L17.4 19.57C17.42 19.49 17.47 19.44 17.51 19.4 17.74 19.23 17.95 19.05 18.16 18.86 18.22 18.81 18.28 18.78 18.34 18.78L20.26 18.73C20.66 18.72 21.02 18.5 21.22 18.16L21.79 17.17C21.99 16.83 21.99 16.4 21.8 16.05L20.88 14.37C20.84 14.3 20.85 14.22 20.86 14.17 20.92 13.9 20.97 13.62 21.01 13.34 21.01 13.26 21.05 13.2 21.1 13.16L22.53 11.89C22.83 11.62 22.97 11.23 22.9 10.83L22.92 10.82ZM20.25 12.17C19.97 12.42 19.79 12.77 19.74 13.16 19.71 13.4 19.67 13.63 19.61 13.86 19.52 14.24 19.57 14.63 19.76 14.97L20.64 16.58 20.15 17.43 18.32 17.48C17.95 17.48 17.58 17.64 17.3 17.9 17.12 18.06 16.93 18.22 16.74 18.36 16.43 18.59 16.21 18.93 16.14 19.3L15.78 21.09 14.86 21.42 13.43 20.28C13.15 20.06 12.8 19.93 12.45 19.93 12.44 19.93 12.43 19.93 12.42 19.93 12.17 19.93 11.85 19.93 11.61 19.93 11.28 19.93 10.88 20.05 10.59 20.28L9.15998 21.42 8.23998 21.09 7.87998 19.29C7.79998 18.92 7.58998 18.59 7.27998 18.35 7.08998 18.2 6.89998 18.05 6.71998 17.89 6.42998 17.63 6.06998 17.48 5.68998 17.47L3.86998 17.42 3.37998 16.57 4.25998 14.96C4.43999 14.63 4.48998 14.24 4.40998 13.85 4.35998 13.62 4.30998 13.38 4.27998 13.14 4.22998 12.75 4.04998 12.4 3.76998 12.15L2.39998 10.94 2.56998 9.97998 4.27998 9.31C4.62998 9.17 4.91998 8.9 5.09998 8.56 5.20998 8.35 5.32998 8.14 5.45998 7.94 5.66998 7.61 5.74998 7.21998 5.69998 6.84998L5.42998 5.03998 6.17998 4.40997 7.91998 4.98999C8.27998 5.10999 8.65998 5.09 9.02998 4.94 9.24998 4.85 9.46999 4.77001 9.69998 4.70001 10.07 4.58001 10.39 4.34002 10.58 4.02002L11.54 2.46002 12.52 2.46002 13.48 4.03003C13.68 4.35003 13.99 4.59002 14.36 4.71002 14.59 4.78002 14.81 4.86002 15.03 4.96002 15.39 5.11002 15.78 5.13001 16.14 5.01001L17.88 4.42999 18.63 5.06 18.36 6.87C18.3 7.24 18.39 7.62001 18.6 7.95001 18.73 8.15001 18.85 8.36001 18.96 8.57001 19.14 8.92001 19.43 9.19001 19.78 9.32001L21.49 9.98999 21.66 10.95 20.29 12.16 20.25 12.17Z" fill="#000000"/></svg>