<svg width="24" height="24" viewBox="0 0 24 24" xmlns="http://www.w3.org/2000/svg" xmlns:xlink="http://www.w3.org/1999/xlink" fill="none" overflow="hidden"><path d="M8 12.65 11.35 12.65 11.35 16C11.35 16.36 11.64 16.65 12 16.65 12.36 16.65 12.65 16.36 12.65 16L12.65 12.65 16 12.65C16.36 12.65 16.65 12.36 16.65 12 16.65 11.64 16.36 11.35 16 11.35L12.65 11.35 12.65 8C12.65 7.64 12.36 7.35 12 7.35 11.64 7.35 11.35 7.64 11.35 8L11.35 11.35 8 11.35C7.64 11.35 7.35 11.64 7.35 12 7.35 12.36 7.64 12.65 8 12.65Z" fill="#000000"/><path d="M3 2 3 22 15.41 22C15.94 22 16.45 21.79 16.82 21.41L20.41 17.82C20.79 17.44 21 16.94 21 16.41L21 2 3 2ZM19.7 16.5C19.7 16.78 19.48 17 19.2 17L16 17 16 20.2C16 20.48 15.78 20.7 15.5 20.7L4.3 20.7 4.3 3.3 19.7 3.3 19.7 16.5Z" fill="#000000"/></svg>