<svg width="24" height="24" viewBox="0 0 24 24" xmlns="http://www.w3.org/2000/svg" xmlns:xlink="http://www.w3.org/1999/xlink" fill="none" overflow="hidden"><path d="M14.37 18.47 14.25 18.63 14.43 18.55C14.66 18.44 14.88 18.37 15.09 18.32 15.3 18.27 15.54 18.25 15.81 18.25 15.98 18.25 16.14 18.26 16.29 18.29 16.43 18.31 16.62 18.35 16.86 18.39 17.14 18.44 17.36 18.48 17.53 18.51 17.7 18.53 17.89 18.55 18.11 18.55 18.65 18.55 19.05 18.39 19.3 18.08 19.55 17.77 19.68 17.28 19.68 16.62L19.68 16.41 19.59 16.59C19.49 16.79 19.36 16.94 19.21 17.04 19.06 17.14 18.86 17.19 18.62 17.19 18.48 17.19 18.35 17.18 18.24 17.15 18.13 17.12 17.99 17.09 17.81 17.03 17.64 16.98 17.5 16.94 17.38 16.91 17.26 16.88 17.11 16.87 16.96 16.87 16.86 16.87 16.76 16.87 16.67 16.89 16.79 16.73 16.88 16.55 16.94 16.37 17.02 16.15 17.05 15.9 17.05 15.62 17.05 15.48 17.04 15.35 17.01 15.21L18.78 15.21 18.78 14.64 16.84 14.64C16.75 14.4 16.68 14.2 16.63 14.05 16.59 13.89 16.56 13.72 16.56 13.52 16.56 13.21 16.66 12.97 16.87 12.79 17.08 12.61 17.37 12.51 17.73 12.51 18.02 12.51 18.31 12.58 18.59 12.72 18.87 12.86 19.09 13.04 19.25 13.26L19.34 13.38 19.34 11.71 19.32 11.71C19.1 11.52 18.82 11.38 18.5 11.28 18.18 11.18 17.83 11.13 17.47 11.13 16.97 11.13 16.52 11.22 16.14 11.4 15.75 11.58 15.45 11.84 15.23 12.17 15.02 12.5 14.91 12.88 14.91 13.3 14.91 13.52 14.93 13.74 14.98 13.95 15.02 14.14 15.08 14.37 15.16 14.63L14.62 14.63 14.62 15.2 15.32 15.2C15.39 15.48 15.42 15.73 15.42 15.92 15.42 16.35 15.35 16.74 15.2 17.09 15.05 17.45 14.77 17.9 14.36 18.45L14.37 18.47Z" fill="#000000"/><path d="M17.9 2.95001C17.54 2.95001 17.25 3.24001 17.25 3.60001 17.25 3.96001 17.54 4.25001 17.9 4.25001L19.78 4.25001 16.08 7.95001 9.44 7.95001 5 12.39 5 14.23 9.98 9.25001 16.62 9.25001 20.75 5.12001 20.75 7.10001C20.75 7.46001 21.04 7.75001 21.4 7.75001 21.76 7.75001 22.05 7.46001 22.05 7.10001L22.05 2.95001 17.9 2.95001Z" fill="#000000"/><path d="M3.3 2 2 2 2 22 22 22 22 20.7 3.3 20.7 3.3 2Z" fill="#000000"/></svg>