<svg width="24" height="24" viewBox="0 0 24 24" xmlns="http://www.w3.org/2000/svg" xmlns:xlink="http://www.w3.org/1999/xlink" fill="none" overflow="hidden"><path d="M19.15 0 10.47 8.68005C10.23 8.92005 9.88 9.00994 9.54 8.93994 6.96 8.42994 4.15 9.34998 2.42 11.73 0.709999 14.08 0.639999 17.35 2.27 19.76 3.69 21.85 5.92 22.9 8.15 22.9 9.96 22.9 11.76 22.21 13.14 20.84 14.87 19.11 15.51 16.7 15.06 14.46 14.99 14.12 15.08 13.78 15.32 13.53L17.2 11.65 17.2 9.68994 19.16 9.68994 19.99 8.85999 19.99 6.90002 21.95 6.90002 24 4.84998 24 0 19.15 0ZM12.22 19.92C9.98 22.16 6.33 22.16 4.08 19.92 1.84 17.68 1.84 14.03 4.08 11.78 5.2 10.66 6.67 10.1 8.15 10.1 9.63 10.1 11.1 10.66 12.22 11.78 14.46 14.02 14.46 17.67 12.22 19.92ZM22.7 4.31006 21.41 5.59998 18.69 5.59998 18.69 8.31995 18.62 8.39001 15.9 8.39001 15.9 11.11 14.41 12.6C14.09 11.97 13.66 11.38 13.14 10.86 12.61 10.33 12.03 9.90997 11.4 9.58997L19.69 1.30005 22.7 1.30005 22.7 4.31006Z" fill="#000000"/><path d="M5.6 16.28C5.01 16.87 5.01 17.82 5.6 18.4 6.19 18.99 7.14 18.99 7.72 18.4 8.31 17.81 8.31 16.86 7.72 16.28 7.13 15.69 6.18 15.69 5.6 16.28Z" fill="#000000"/></svg>