<svg width="24" height="24" viewBox="0 0 24 24" xmlns="http://www.w3.org/2000/svg" xmlns:xlink="http://www.w3.org/1999/xlink" fill="none" overflow="hidden"><path d="M0 18 0 20C0 21.1 0.9 22 2 22L22 22C23.1 22 24 21.1 24 20L24 18 0 18ZM22.7 20C22.7 20.39 22.39 20.7 22 20.7L2 20.7C1.61 20.7 1.3 20.39 1.3 20L1.3 19.3 22.7 19.3 22.7 20Z" fill="#000000"/><path d="M3.3 7.29999 20.7 7.29999 20.7 16.5 22 16.5 22 5C22 3.9 21.1 3 20 3L4 3C2.9 3 2 3.9 2 5L2 16.5 3.3 16.5 3.3 7.29999ZM3.3 5C3.3 4.61 3.61 4.29999 4 4.29999L20 4.29999C20.39 4.29999 20.7 4.61 20.7 5L20.7 6 3.3 6 3.3 5Z" fill="#000000"/><path d="M11 8.84 11 14.27 12.52 13.55 13.76 16.17 14.94 15.62 13.69 13 15.21 12.28 11 8.84Z" fill="#000000"/></svg>