<svg width="24" height="24" viewBox="0 0 24 24" xmlns="http://www.w3.org/2000/svg" xmlns:xlink="http://www.w3.org/1999/xlink" fill="none" overflow="hidden"><path d="M20 8.97998C20 4.55998 16.42 0.97998 12 0.97998 7.58 0.97998 4 4.55998 4 8.97998 4 11.4 5.08 13.56 6.77 15.02 8.22 16.3 9 17.69 9 20.1L9 21C9 21.55 9.45 22 10 22L14 22C14.55 22 15 21.55 15 21L15 20.1C15 17.69 15.78 16.3 17.23 15.02 18.92 13.55 20 11.39 20 8.97998ZM13.7 20.7 10.3 20.7 10.3 19.0699 13.7 19.0699 13.7 20.7ZM16.38 14.04 15.48 14.93C14.74 15.78 14.27 16.71 14 17.77L10 17.77C9.73 16.71 9.26 15.78 8.52 14.93L7.62 14.04C6.15 12.76 5.3 10.92 5.3 8.97998 5.3 5.28998 8.31 2.28003 12 2.28003 15.69 2.28003 18.7 5.28998 18.7 8.97998 18.7 10.92 17.85 12.76 16.38 14.04Z" fill="#000000"/><path d="M14 4C13.71 5.51 12.51 6.71 11 7 12.51 7.29 13.71 8.49 14 10 14.29 8.49 15.49 7.29 17 7 15.49 6.71 14.29 5.51 14 4Z" fill="#000000"/></svg>