<svg width="24" height="24" viewBox="0 0 24 24" xmlns="http://www.w3.org/2000/svg" xmlns:xlink="http://www.w3.org/1999/xlink" fill="none" overflow="hidden"><path d="M20.1501 3.84998C19.1801 2.87998 17.8901 2.34998 16.5201 2.34998 15.1501 2.34998 13.8601 2.87998 12.8901 3.84998L9.95011 6.79004C8.98011 7.76004 8.45011 9.05004 8.45011 10.42 8.45011 11.79 8.98011 13.08 9.95011 14.05 10.5501 14.65 11.2801 15.06 12.0701 15.3L12.1101 15.26C12.4401 14.93 12.6401 14.53 12.7401 14.12 12.0501 13.97 11.3901 13.65 10.8801 13.13 10.1601 12.41 9.76011 11.44 9.76011 10.42 9.76011 9.40004 10.1601 8.43996 10.8801 7.70996L13.8201 4.77002C14.5401 4.05002 15.5101 3.65002 16.5301 3.65002 17.5501 3.65002 18.5201 4.05002 19.2401 4.77002 20.7301 6.26002 20.7301 8.68994 19.2401 10.1899L16.9001 12.53C16.9901 13.11 17.0101 13.69 16.9501 14.28 17.0401 14.2 17.1401 14.1401 17.2201 14.0601L20.1601 11.12C22.1601 9.12 22.1601 5.85999 20.1601 3.85999L20.1501 3.84998Z" fill="#000000"/><path d="M11.9301 8.69995 11.8901 8.73999C11.5801 9.04999 11.3701 9.43998 11.2701 9.84998 11.9701 10.01 12.6101 10.35 13.1301 10.87 13.8501 11.59 14.2501 12.56 14.2501 13.58 14.2501 14.6 13.8501 15.56 13.1301 16.29L10.1901 19.23C8.70011 20.72 6.27011 20.72 4.77011 19.23 3.28011 17.74 3.28011 15.3101 4.77011 13.8101L7.10011 11.48C7.04011 11.13 7.00011 10.78 7.00011 10.42 7.00011 10.2 7.01011 9.97 7.04011 9.75 6.96011 9.82 6.87011 9.86995 6.80011 9.94995L3.86011 12.89C1.86011 14.89 1.86011 18.15 3.86011 20.15 4.86011 21.15 6.17011 21.65 7.49011 21.65 8.81011 21.65 10.1201 21.15 11.1201 20.15L14.0601 17.21C15.0301 16.24 15.5601 14.95 15.5601 13.58 15.5601 12.21 15.0301 10.92 14.0601 9.94995 13.4601 9.34995 12.7301 8.93995 11.9501 8.69995L11.9301 8.69995Z" fill="#000000"/></svg>