<svg width="24" height="24" viewBox="0 0 24 24" xmlns="http://www.w3.org/2000/svg" xmlns:xlink="http://www.w3.org/1999/xlink" fill="none" overflow="hidden"><path d="M20.01 10.98C19.35 10.76 18.68 10.56 18 10.39L18 8C18 4.69 15.31 2 12 2 8.69 2 6 4.69 6 8L6 10.39C5.32 10.56 4.65 10.76 3.99 10.98 3.39 11.18 3 11.76 3 12.39L3 20.5C3 21.33 3.67 22 4.5 22L19.5 22C20.33 22 21 21.33 21 20.5L21 12.39C21 11.76 20.61 11.18 20.01 10.98ZM7.3 8C7.3 5.41 9.41 3.29999 12 3.29999 14.59 3.29999 16.7 5.41 16.7 8L16.7 10.11C15.18 9.80999 13.61 9.64001 12 9.64001 10.39 9.64001 8.82 9.80999 7.3 10.11L7.3 8ZM19.7 20.5C19.7 20.61 19.61 20.7 19.5 20.7L4.5 20.7C4.39 20.7 4.3 20.61 4.3 20.5L4.3 12.39C4.3 12.31 4.35 12.23 4.41 12.21 6.88 11.37 9.43 10.94 12 10.94 14.57 10.94 17.12 11.37 19.59 12.21 19.65 12.23 19.7 12.31 19.7 12.39L19.7 20.5Z" fill="#000000"/><path d="M12 13.25C11.64 13.25 11.35 13.54 11.35 13.9L11.35 18 12.65 18 12.65 13.9C12.65 13.54 12.36 13.25 12 13.25Z" fill="#000000"/></svg>