<svg width="25" height="24" viewBox="0 0 25 24" xmlns="http://www.w3.org/2000/svg" xmlns:xlink="http://www.w3.org/1999/xlink" fill="none" overflow="hidden"><path d="M15.97 9.15001C16.27 9.33001 16.63 9.47002 17 9.47002 17.37 9.47002 17.73 9.33001 18.03 9.15001 18.72 8.74001 19.22 8.07001 19.49 7.31001 19.82 6.40001 19.85 5.59001 19.85 5.59001 19.94 3.50001 18.56 2.45001 16.99 2.45001 15.42 2.45001 14.04 3.50001 14.13 5.59001 14.13 5.59001 14.16 6.40001 14.49 7.31001 14.77 8.07001 15.26 8.74001 15.95 9.15001L15.97 9.15001ZM15.84 4.18001C16.11 3.90001 16.52 3.75002 17 3.75002 17.48 3.75002 17.89 3.90001 18.16 4.18001 18.45 4.48001 18.58 4.94002 18.56 5.54002 18.56 5.54002 18.53 6.18 18.28 6.86 18.09 7.38 17.77 7.79001 17.37 8.03001 17.15 8.16001 17.03 8.17003 17 8.17003 16.97 8.17003 16.85 8.16001 16.63 8.03001 16.23 7.79001 15.91 7.38 15.72 6.86 15.47 6.17 15.44 5.54001 15.44 5.53001 15.41 4.94001 15.55 4.48001 15.84 4.18001Z" fill="#000000"/><path d="M5.97 9.15001C6.27 9.33001 6.63 9.47002 7 9.47002 7.37 9.47002 7.73 9.33001 8.03 9.15001 8.72 8.74001 9.22 8.07001 9.49 7.31001 9.82 6.40001 9.85 5.59001 9.85 5.59001 9.94 3.50001 8.56 2.45001 6.99 2.45001 5.42 2.45001 4.04 3.50001 4.13 5.59001 4.13 5.59001 4.16 6.40001 4.49 7.31001 4.77 8.07001 5.26 8.74001 5.95 9.15001L5.97 9.15001ZM5.84 4.18001C6.11 3.90001 6.52 3.75002 7 3.75002 7.48 3.75002 7.89 3.90001 8.16 4.18001 8.45 4.48001 8.58 4.94002 8.56 5.54002 8.56 5.54002 8.53 6.18 8.28 6.86 8.09 7.38 7.77 7.79001 7.37 8.03001 7.15 8.16001 7.03 8.17003 7 8.17003 6.97 8.17003 6.85 8.16001 6.63 8.03001 6.23 7.79001 5.91 7.38 5.72 6.86 5.47 6.17 5.44 5.54001 5.44 5.53001 5.41 4.94001 5.55 4.48001 5.84 4.18001Z" fill="#000000"/><path d="M8.94 11.92C8.94 11.92 8.97 12.79 9.33 13.77 9.63 14.58 10.16 15.3 10.9 15.74 11.23 15.93 11.61 16.09 12.01 16.09 12.41 16.09 12.79 15.94 13.12 15.74 13.86 15.3 14.39 14.58 14.69 13.77 15.05 12.8 15.08 11.92 15.08 11.92 15.18 9.68003 13.7 8.56001 12.02 8.56001 10.34 8.56001 8.86 9.69003 8.96 11.92L8.94 11.92ZM10.69 10.35C10.99 10.03 11.46 9.86 12 9.86 12.54 9.86 13.01 10.04 13.31 10.35 13.64 10.69 13.79 11.2 13.76 11.87 13.76 11.87 13.73 12.57 13.45 13.32 13.24 13.9 12.88 14.36 12.44 14.62 12.27 14.72 12.11 14.78 12 14.78 11.89 14.78 11.73 14.72 11.56 14.62 11.12 14.36 10.76 13.89 10.55 13.32 10.27 12.57 10.24 11.88 10.24 11.86 10.21 11.2 10.36 10.69 10.69 10.35Z" fill="#000000"/><path d="M16.51 17.23 14.54 16.54C14.33 16.72 14.11 16.89 13.87 17.03 13.61 17.19 13.35 17.3 13.08 17.39 13.14 17.41 13.19 17.45 13.25 17.46L16.1 18.46C17.05 18.77 17.4 19.05 17.7 20.16L17.83 20.7 6.16 20.7 6.29 20.19C6.6 19.06 6.94 18.78 7.92 18.46L10.74 17.47C10.8 17.45 10.85 17.42 10.91 17.4 10.65 17.31 10.38 17.19 10.12 17.04 9.88 16.9 9.66 16.73 9.45 16.55L7.49 17.24C6.17 17.68 5.47 18.27 5.04 19.86L4.51 22.01 19.51 22.01 18.98 19.86C18.55 18.27 17.85 17.68 16.53 17.24L16.51 17.23Z" fill="#000000"/><path d="M18.8 10.44C18.54 10.59 18.29 10.71 18.03 10.79 18.07 10.8 18.11 10.83 18.15 10.84L20.81 11.78C21.66 12.06 21.98 12.31 22.25 13.3L22.35 13.7 16.28 13.7C16.23 13.89 16.17 14.08 16.1 14.28 16.01 14.53 15.89 14.77 15.77 15L24.02 15 23.52 12.99C23.12 11.51 22.46 10.95 21.23 10.55L19.51 9.94002C19.3 10.13 19.07 10.3 18.83 10.44L18.8 10.44Z" fill="#000000"/><path d="M8.25 15C8.13 14.77 8.01 14.53 7.92 14.28 7.85 14.08 7.79 13.89 7.74 13.7L1.66 13.7 1.75 13.33C2.03 12.31 2.34 12.06 3.22 11.77L5.85 10.84C5.85 10.84 5.93 10.8 5.97 10.79 5.71 10.7 5.45 10.59 5.2 10.44 4.96 10.3 4.73 10.13 4.52 9.94002L2.8 10.55C1.57 10.96 0.91 11.51 0.51 12.99L0 15 8.25 15Z" fill="#000000"/></svg>