<svg width="24" height="24" viewBox="0 0 24 24" xmlns="http://www.w3.org/2000/svg" xmlns:xlink="http://www.w3.org/1999/xlink" fill="none" overflow="hidden"><path d="M14.24 8.90001C14.61 9.12001 15.04 9.29001 15.5 9.29001 15.96 9.29001 16.39 9.12001 16.76 8.90001 17.6 8.40001 18.2 7.58001 18.54 6.67001 18.94 5.57001 18.98 4.58002 18.98 4.58002 19.09 2.04002 17.42 0.77002 15.51 0.77002 13.6 0.77002 11.93 2.05002 12.04 4.58002 12.04 4.58002 12.07 5.57001 12.48 6.67001 12.82 7.59001 13.42 8.40001 14.26 8.90001L14.24 8.90001ZM13.89 2.67001C14.27 2.27001 14.84 2.06001 15.5 2.06001 16.16 2.06001 16.73 2.28001 17.11 2.67001 17.52 3.09001 17.71 3.72002 17.67 4.52002 17.67 4.52002 17.63 5.34002 17.31 6.22002 17.06 6.91002 16.62 7.47001 16.09 7.79001 15.87 7.92001 15.66 8.00002 15.5 8.00002 15.34 8.00002 15.13 7.93001 14.91 7.79001 14.37 7.47001 13.94 6.91002 13.69 6.22002 13.37 5.34002 13.33 4.53002 13.33 4.52002 13.3 3.72002 13.48 3.10001 13.89 2.68001L13.89 2.67001Z" fill="#000000"/><path d="M7.24 14.9C7.61 15.12 8.04 15.29 8.5 15.29 8.96 15.29 9.39 15.12 9.76 14.9 10.6 14.4 11.2 13.58 11.54 12.67 11.94 11.57 11.98 10.58 11.98 10.58 12.09 8.04002 10.42 6.77002 8.51 6.77002 6.6 6.77002 4.93 8.05002 5.04 10.58 5.04 10.58 5.07 11.57 5.48 12.67 5.82 13.59 6.42 14.4 7.26 14.9L7.24 14.9ZM6.89 8.67001C7.27 8.27001 7.84 8.06001 8.5 8.06001 9.16 8.06001 9.73 8.28001 10.11 8.67001 10.52 9.09001 10.71 9.72002 10.67 10.52 10.67 10.52 10.63 11.34 10.31 12.22 10.06 12.91 9.62 13.47 9.09 13.79 8.87 13.92 8.66 14 8.5 14 8.34 14 8.13 13.93 7.91 13.79 7.37 13.47 6.94 12.91 6.69 12.22 6.37 11.34 6.33 10.53 6.33 10.52 6.3 9.72002 6.48 9.10001 6.89 8.68001L6.89 8.67001Z" fill="#000000"/><path d="M13.61 16.59 11.15 15.73C10.95 15.9 10.74 16.06 10.52 16.19 10.25 16.35 9.98 16.47 9.7 16.57 9.79 16.61 9.88 16.66 9.97 16.69L13.2 17.83C14.31 18.2 14.77 18.57 15.13 19.88L15.34 20.71 1.66 20.71 1.86 19.91C2.23 18.57 2.68 18.2 3.82 17.83L7.02 16.7C7.12 16.67 7.2 16.62 7.29 16.58 7.02 16.48 6.74 16.36 6.47 16.2 6.25 16.07 6.04 15.9 5.84 15.74L3.38 16.6C1.88 17.09 1.09 17.77 0.6 19.57L0 22 17 22 16.39 19.56C15.9 17.76 15.11 17.09 13.61 16.59Z" fill="#000000"/><path d="M17.52 10.19C17.25 10.35 16.98 10.47 16.7 10.57 16.79 10.61 16.88 10.66 16.97 10.69L20.2 11.83C21.31 12.2 21.77 12.57 22.13 13.88L22.34 14.71 12.76 14.71 14.08 15.18C14.75 15.4 15.31 15.68 15.79 16.01L24 16.01 23.39 13.57C22.9 11.77 22.11 11.1 20.61 10.6L18.15 9.74002C17.95 9.91002 17.74 10.07 17.52 10.2L17.52 10.19Z" fill="#000000"/></svg>