<svg width="25" height="24" viewBox="0 0 25 24" xmlns="http://www.w3.org/2000/svg" xmlns:xlink="http://www.w3.org/1999/xlink" fill="none" overflow="hidden"><path d="M10.3851 12.81C10.8651 13.1 11.4251 13.32 12.0151 13.32 12.6051 13.32 13.1651 13.1 13.6451 12.81 14.7351 12.16 15.5151 11.11 15.9451 9.92001 16.4651 8.49001 16.5151 7.20999 16.5151 7.20999 16.6551 3.92999 14.4951 2.26999 12.0251 2.26999 9.55515 2.26999 7.38515 3.91999 7.53515 7.20999 7.53515 7.20999 7.57515 8.49001 8.10515 9.92001 8.54515 11.11 9.31515 12.16 10.4051 12.81L10.3851 12.81ZM9.65515 4.48999C10.2151 3.89999 11.0551 3.57999 12.0151 3.57999 12.9751 3.57999 13.8151 3.89999 14.3751 4.48999 14.9651 5.10999 15.2551 6.03001 15.2051 7.17001 15.2051 7.18001 15.1551 8.28001 14.7151 9.48001 14.3551 10.45 13.7351 11.24 12.9651 11.7 12.6151 11.91 12.2751 12.02 12.0051 12.02 11.7351 12.02 11.3951 11.91 11.0451 11.7 10.2751 11.24 9.65515 10.45 9.29515 9.48001 8.85515 8.28001 8.80515 7.18 8.80515 7.16 8.75515 6.03 9.04515 5.10999 9.63515 4.48999L9.65515 4.48999Z" fill="#000000"/><path d="M22.2351 18.84C21.5951 16.51 20.5751 15.64 18.6351 15L14.9551 13.7C14.7751 13.84 14.6051 13.98 14.4151 14.1 14.0951 14.29 13.7851 14.43 13.4651 14.54 13.6551 14.63 13.8451 14.7 14.0551 14.76L18.2351 16.23C19.7451 16.73 20.4651 17.25 20.9751 19.15L21.3551 20.7 11.9451 20.7C12.0251 21.12 11.9651 21.56 11.7551 21.93L11.7151 22 23.0151 22 22.2351 18.84Z" fill="#000000"/><path d="M10.7351 17.22 9.78515 16.84C9.67515 16.8 9.58515 16.71 9.52515 16.6 9.46515 16.48 9.39515 16.36 9.31515 16.24 9.24515 16.14 9.22515 16.02 9.23515 15.9 9.27515 15.63 9.35515 15.13 9.38515 14.88 9.39515 14.79 9.36515 14.7 9.29515 14.64L8.82515 14.25C8.82515 14.25 8.71515 14.19 8.65515 14.19 8.62515 14.19 8.59515 14.19 8.57515 14.2L7.60515 14.53C7.60515 14.53 7.50515 14.55 7.45515 14.55 7.38515 14.55 7.31515 14.54 7.25515 14.51 7.12515 14.46 6.99515 14.41 6.86515 14.37 6.74515 14.33 6.64515 14.26 6.58515 14.16 6.44515 13.93 6.17515 13.5 6.04515 13.28 5.99515 13.2 5.91515 13.15 5.81515 13.15L5.20515 13.15C5.11515 13.15 5.02515 13.2 4.97515 13.28L4.43515 14.15C4.37515 14.25 4.27515 14.33 4.15515 14.36 4.02515 14.4 3.89515 14.45 3.76515 14.5 3.70515 14.53 3.63515 14.54 3.56515 14.54 3.51515 14.54 3.46515 14.54 3.41515 14.52 3.15515 14.43 2.67515 14.27 2.44515 14.19 2.41515 14.19 2.38515 14.18 2.36515 14.18 2.30515 14.18 2.24515 14.2 2.19515 14.24L1.72515 14.63C1.65515 14.69 1.61515 14.78 1.63515 14.87L1.78515 15.88C1.80515 16 1.77515 16.12 1.70515 16.22 1.63515 16.34 1.56515 16.46 1.49515 16.58 1.43515 16.69 1.35515 16.77 1.23515 16.82 0.985148 16.92 0.515148 17.1 0.275148 17.2 0.185148 17.23 0.125148 17.31 0.115148 17.4L0.00514837 18C-0.0148516 18.09 0.0251484 18.19 0.0951484 18.25L0.865148 18.93C0.955148 19.01 1.01515 19.12 1.02515 19.24 1.04515 19.38 1.06515 19.52 1.09515 19.65 1.12515 19.77 1.10515 19.89 1.05515 20L0.565148 20.9C0.525148 20.98 0.525148 21.08 0.565148 21.16L0.875148 21.69C0.925148 21.77 1.00515 21.82 1.09515 21.82L2.11515 21.85C2.23515 21.85 2.34515 21.9 2.43515 21.98 2.53515 22.07 2.64515 22.16 2.75515 22.25 2.85515 22.32 2.92515 22.43 2.94515 22.54 2.99515 22.81 3.09515 23.3 3.14515 23.55 3.16515 23.64 3.22515 23.71 3.31515 23.75L3.89515 23.96C3.89515 23.96 3.95515 23.98 3.98515 23.98 4.04515 23.98 4.10515 23.96 4.15515 23.92L4.95515 23.28C5.04515 23.21 5.15515 23.17 5.26515 23.17 5.33515 23.17 5.41515 23.17 5.48515 23.17 5.55515 23.17 5.64515 23.17 5.70515 23.17 5.81515 23.17 5.92515 23.21 6.01515 23.28L6.81515 23.92C6.81515 23.92 6.92515 23.98 6.98515 23.98 7.01515 23.98 7.04515 23.98 7.07515 23.96L7.65515 23.75C7.74515 23.72 7.80515 23.64 7.82515 23.55L8.02515 22.55C8.04515 22.43 8.11515 22.33 8.21515 22.25 8.32515 22.16 8.43515 22.08 8.53515 21.98 8.62515 21.9 8.73515 21.85 8.85515 21.85 9.12515 21.85 9.62515 21.83 9.87515 21.82 9.96515 21.82 10.0551 21.77 10.0951 21.69L10.4051 21.16C10.4551 21.08 10.4551 20.98 10.4051 20.9L9.91515 20C9.85515 19.89 9.84515 19.77 9.87515 19.65 9.90515 19.52 9.93515 19.38 9.94515 19.24 9.96515 19.12 10.0151 19.01 10.1051 18.93L10.8751 18.25C10.9451 18.19 10.9751 18.09 10.9651 18L10.8551 17.4C10.8351 17.31 10.7751 17.23 10.6851 17.2L10.7351 17.22ZM5.51515 20.83C4.27515 20.83 3.26515 19.82 3.26515 18.58 3.26515 17.34 4.27515 16.33 5.51515 16.33 6.75515 16.33 7.76515 17.34 7.76515 18.58 7.76515 19.82 6.75515 20.83 5.51515 20.83Z" fill="#000000"/></svg>