<svg width="24" height="24" viewBox="0 0 24 24" xmlns="http://www.w3.org/2000/svg" xmlns:xlink="http://www.w3.org/1999/xlink" fill="none" overflow="hidden"><path d="M12 1C5.92 1 1 5.92 1 12 1 18.08 5.92 23 12 23 18.08 23 23 18.08 23 12 23 5.92 18.08 1 12 1ZM21.7 12C21.7 14.38 20.83 16.57 19.4 18.26L17.13 15.99C17.99 14.89 18.5 13.51 18.5 12 18.5 8.63 15.93 5.86003 12.65 5.53003L12.65 2.32996C17.7 2.66996 21.7 6.87 21.7 12ZM4.6 18.26C3.3 16.72 2.47 14.78 2.33 12.65L5.53 12.65C5.65 13.9 6.14 15.04 6.87 15.99L4.6 18.26ZM6.8 12C6.8 9.13 9.13 6.80005 12 6.80005 14.87 6.80005 17.2 9.13 17.2 12 17.2 14.87 14.87 17.2 12 17.2 9.13 17.2 6.8 14.87 6.8 12ZM11.35 2.32996 11.35 5.53003C8.28 5.84003 5.84 8.27998 5.53 11.35L2.33 11.35C2.65 6.51998 6.52 2.65996 11.35 2.32996ZM5.51 19.1899 7.77 16.9301C8.91 17.9101 10.38 18.5 12 18.5 13.62 18.5 15.09 17.9101 16.23 16.9301L18.49 19.1899C16.77 20.7499 14.5 21.7 12 21.7 9.5 21.7 7.23 20.7399 5.51 19.1899Z" fill="#000000"/></svg>