<svg width="25" height="24" viewBox="0 0 25 24" xmlns="http://www.w3.org/2000/svg" xmlns:xlink="http://www.w3.org/1999/xlink" fill="none" overflow="hidden"><path d="M5.07001 12.34C5.07001 12.81 5.45001 13.19 5.92001 13.19 6.39001 13.19 6.77001 12.81 6.77001 12.34 6.77001 11.87 6.39001 11.49 5.92001 11.49 5.45001 11.49 5.07001 11.87 5.07001 12.34Z" fill="#000000"/><path d="M17.69 5.68C17.38 6.09 17.02 6.45 16.6 6.74 20.17 7.52 22.8 10.18 22.8 13.35 22.8 15.66 21.38 17.8 19.01 19.08L18.74 19.23 18.25 21.71 16.43 21.71 16.43 19.84 15.68 19.95C14.52 20.12 12.85 20.09 12.25 19.95L11.46 19.77 11.46 21.69 9.64001 21.69 9.02001 18.56 8.65001 18.44C6.24001 17.67 4.28001 15.99 3.77001 15.26L3.62001 15.05 1.72001 14.66 1.48001 12.27 2.41001 12.27 4.80001 9.77 4.78001 9.48C4.71001 8.5 4.94001 7.79 5.19001 7.31 5.56001 7.9 6.10001 8.6 6.80001 9.03L7.19001 9.27 7.54001 8.99C8.95001 7.89 10.28 7.18 11.73 6.81 11.29 6.54 10.91 6.2 10.59 5.8 9.41001 6.21 8.28001 6.82 7.13001 7.66 6.59001 7.18 6.13001 6.42 5.87001 5.84L5.52001 5.05 4.86001 5.6C4.80001 5.65 3.40001 6.85 3.46001 9.26L1.84001 10.95 0.730013 10.95C0.380013 10.95 0.100013 11.26 0.130013 11.61L0.480013 15.13C0.510013 15.48 0.770013 15.76 1.11001 15.83L2.88001 16.2C3.68001 17.19 5.60001 18.71 7.90001 19.53L8.48001 22.48C8.54001 22.76 8.78001 22.96 9.07001 22.96L12.16 22.96C12.49 22.96 12.76 22.69 12.76 22.36L12.76 21.29C13.46 21.34 14.34 21.34 15.13 21.28L15.13 22.37C15.13 22.7 15.4 22.97 15.73 22.97L18.82 22.97C19.11 22.97 19.35 22.77 19.41 22.49L19.89 20.04C22.52 18.52 24.09 16.02 24.09 13.32 24.09 9.79 21.41 6.78 17.68 5.65L17.69 5.68Z" fill="#000000"/><path d="M11.01 9.32C11.16 9.64 11.55 9.78 11.87 9.64 11.89 9.63 14.05 8.66 16.54 9.65 16.62 9.68 16.7 9.7 16.78 9.7 17.04 9.7 17.28 9.54 17.38 9.29 17.51 8.96 17.35 8.58 17.02 8.45 13.99 7.25 11.43 8.41 11.32 8.47 11 8.62 10.86 9.01 11.01 9.33L11.01 9.32Z" fill="#000000"/><path d="M14.1 6C15.76 6 17.1 4.66 17.1 3 17.1 1.34 15.76 0 14.1 0 12.44 0 11.1 1.34 11.1 3 11.1 4.66 12.44 6 14.1 6ZM14.1 1.3C15.04 1.3 15.8 2.06 15.8 3 15.8 3.94 15.04 4.7 14.1 4.7 13.16 4.7 12.4 3.94 12.4 3 12.4 2.06 13.16 1.3 14.1 1.3Z" fill="#000000"/></svg>