<svg width="24" height="24" viewBox="0 0 24 24" xmlns="http://www.w3.org/2000/svg" xmlns:xlink="http://www.w3.org/1999/xlink" fill="none" overflow="hidden"><path d="M12 1C5.92 1 1 5.92 1 12 1 18.08 5.92 23 12 23 18.08 23 23 18.08 23 12 23 5.92 18.08 1 12 1ZM12 21.7C6.65 21.7 2.3 17.35 2.3 12 2.3 6.65 6.65 2.29999 12 2.29999 17.35 2.29999 21.7 6.65 21.7 12 21.7 17.35 17.35 21.7 12 21.7Z" fill="#000000"/><path d="M14.52 15.16C14.26 15.34 13.94 15.42 13.55 15.42 13.31 15.42 13.09 15.4 12.91 15.36 12.72 15.32 12.49 15.27 12.24 15.19 11.76 15.05 11.34 14.98 10.99 14.98 10.9 14.98 10.83 14.98 10.77 14.98 11.2 14.45 11.42 13.79 11.42 13.02 11.42 12.72 11.38 12.4 11.31 12.06L14.01 12.06 14.01 11.36 11.1 11.36C11.08 11.3 11.04 11.19 10.97 11.01 10.9 10.82 10.83 10.6 10.77 10.36 10.71 10.12 10.68 9.85 10.68 9.56 10.68 9.05 10.85 8.64002 11.18 8.33002 11.51 8.02002 11.95 7.85999 12.5 7.85999 12.94 7.85999 13.36 7.95997 13.76 8.15997 14.16 8.35997 14.48 8.63002 14.73 8.96002L14.82 9.08002 14.82 7.28 14.8 7.28C14.51 7.01 14.14 6.81001 13.7 6.67001 13.27 6.53001 12.8 6.45999 12.3 6.45999 11.67 6.45999 11.1 6.57999 10.61 6.82999 10.12 7.07999 9.73 7.43 9.46 7.87 9.19 8.31999 9.05 8.83001 9.05 9.39001 9.05 9.74002 9.08 10.08 9.15 10.39 9.21 10.69 9.3 11.01 9.41 11.35L8.49 11.35 8.49 12.05 9.62 12.05C9.74 12.49 9.8 12.88 9.8 13.22 9.8 13.77 9.68 14.31 9.45 14.83 9.21 15.35 8.81 15.98 8.25 16.69L8.11 16.86 8.31 16.76C8.61 16.61 8.89 16.51 9.15 16.45 9.41 16.39 9.71 16.36 10.06 16.36 10.3 16.36 10.52 16.38 10.72 16.41 10.93 16.44 11.19 16.49 11.5 16.56 11.85 16.63 12.15 16.69 12.39 16.72 12.63 16.75 12.9 16.77 13.19 16.77 13.9 16.77 14.43 16.57 14.76 16.19 15.09 15.8 15.25 15.19 15.25 14.36L15.25 14.13 15.16 14.34C15 14.69 14.78 14.96 14.53 15.14L14.52 15.16Z" fill="#000000"/></svg>