<svg width="22" height="20" viewBox="0 0 22 20" xmlns="http://www.w3.org/2000/svg" xmlns:xlink="http://www.w3.org/1999/xlink" fill="none" overflow="hidden"><path d="M21.22 16.84C20.58 14.51 19.56 13.64 17.62 13L13.94 11.7C13.76 11.84 13.59 11.98 13.4 12.1 13.08 12.29 12.77 12.43 12.45 12.54 12.64 12.63 12.83 12.7 13.04 12.76L17.22 14.23C18.73 14.73 19.45 15.25 19.96 17.15L20.34 18.7 1.66001 18.7 2.04001 17.18C2.57001 15.25 3.28001 14.73 4.82001 14.22L8.97001 12.76C9.17001 12.7 9.37001 12.63 9.56001 12.54 9.24001 12.43 8.93001 12.28 8.61001 12.1 8.42001 11.99 8.25001 11.84 8.07001 11.7L4.39001 13C2.45001 13.64 1.43001 14.51 0.79001 16.84L0.0100098 20 22.01 20 21.23 16.84 21.22 16.84Z" fill="#000000"/><path d="M9.37001 10.81C9.85001 11.1 10.41 11.32 11 11.32 11.59 11.32 12.15 11.1 12.63 10.81 13.72 10.16 14.5 9.11002 14.93 7.92002 15.45 6.49002 15.5 5.21002 15.5 5.21002 15.64 1.93002 13.48 0.27002 11.01 0.27002 8.54001 0.27002 6.37001 1.92002 6.52001 5.21002 6.52001 5.21002 6.56001 6.49002 7.09001 7.92002 7.53001 9.11002 8.30001 10.16 9.39001 10.81L9.37001 10.81ZM8.64001 2.49002C9.20001 1.90002 10.04 1.58002 11 1.58002 11.96 1.58002 12.8 1.90002 13.36 2.49002 13.95 3.11002 14.24 4.03002 14.19 5.17002 14.19 5.18002 14.14 6.28002 13.7 7.48002 13.34 8.45002 12.72 9.24002 11.95 9.70002 11.6 9.91002 11.26 10.02 10.99 10.02 10.72 10.02 10.39 9.91002 10.03 9.70002 9.26001 9.24002 8.64001 8.45002 8.28001 7.48002 7.84001 6.28002 7.79001 5.18002 7.79001 5.16002 7.74001 4.03002 8.03001 3.11002 8.62001 2.49002L8.64001 2.49002Z" fill="#000000"/></svg>