<svg width="24" height="24" viewBox="0 0 24 24" xmlns="http://www.w3.org/2000/svg" xmlns:xlink="http://www.w3.org/1999/xlink" fill="none" overflow="hidden"><path d="M22.08 21.02 17.2 16.14C16.87 15.81 16.8 15.28 17.07 14.89 18.18 13.26 18.73 11.22 18.42 9.02999 17.9 5.36999 14.87 2.45 11.19 2.04 5.89996 1.46 1.47996 5.88001 2.05996 11.17 2.45996 14.84 5.37996 17.88 9.03996 18.4 11.22 18.71 13.27 18.17 14.9 17.06 15.29 16.79 15.81 16.86 16.15 17.19L21.03 22.07C21.18 22.22 21.37 22.29 21.56 22.29 21.75 22.29 21.94 22.22 22.09 22.07 22.38 21.78 22.38 21.3 22.09 21.01L22.08 21.02ZM3.49996 10.25C3.49996 6.53 6.52996 3.5 10.25 3.5 13.97 3.5 17 6.53 17 10.25 17 13.97 13.97 17 10.25 17 6.52996 17 3.49996 13.97 3.49996 10.25Z" fill="#000000"/></svg>