<svg width="24" height="24" viewBox="0 0 24 24" xmlns="http://www.w3.org/2000/svg" xmlns:xlink="http://www.w3.org/1999/xlink" fill="none" overflow="hidden"><path d="M21.96 3.97998C21.14 4.19998 20.31 4.34998 19.42 4.34998 16.46 4.34998 13.83 3.04 12 1 10.17 3.04 7.54 4.34998 4.58 4.34998 3.7 4.34998 2.86 4.18998 2.04 3.97998 2.04 4.20998 2 4.43998 2 4.66998 2 12.64 4.18 19.59 12 22.84 19.82 19.59 22 12.64 22 4.66998 22 4.42998 21.96 4.20998 21.96 3.97998ZM3.31 5.56C3.75 5.62 4.17 5.65002 4.58 5.65002 7.03 5.65002 9.4 4.81998 11.35 3.34998L11.35 21.11C6.07 18.43 3.49 13.45 3.31 5.56ZM12.65 21.11 12.65 3.34998C14.6 4.82998 16.97 5.65002 19.42 5.65002 19.83 5.65002 20.25 5.62 20.69 5.56 20.51 13.44 17.93 18.43 12.65 21.11Z" fill="#000000"/></svg>