<svg width="25" height="24" viewBox="0 0 25 24" xmlns="http://www.w3.org/2000/svg" xmlns:xlink="http://www.w3.org/1999/xlink" fill="none" overflow="hidden"><path d="M12 4.48999 13.6 9.40002 13.89 10.3 20 10.3 15.82 13.34 15.06 13.9 15.35 14.8 16.95 19.71 12.77 16.67 12.01 16.11 11.25 16.67 7.07 19.71 8.67 14.8 8.96 13.9 8.2 13.34 4.02 10.3 10.13 10.3 10.42 9.40002 12.02 4.48999M12 0.280029 9.17 9 0 9 7.42 14.39 4.59 23.11 12.01 17.72 19.43 23.11 16.6 14.39 24.02 9 14.85 9 12.02 0.280029 12 0.280029Z" fill="#000000"/></svg>