<svg width="24" height="24" viewBox="0 0 24 24" xmlns="http://www.w3.org/2000/svg" xmlns:xlink="http://www.w3.org/1999/xlink" fill="none" overflow="hidden"><path d="M16.66 3.70001C16.53 3.28001 16.14 3 15.71 3L14 3 14 2C14 0.9 13.1 0 12 0 10.9 0 10 0.9 10 2L10 3 8.29 3C7.85 3 7.47 3.28001 7.34 3.70001L6 8 18 8 16.66 3.70001ZM7.77 6.70001 8.52 4.29999 11.31 4.29999 11.31 2C11.31 1.61 11.62 1.29999 12.01 1.29999 12.4 1.29999 12.71 1.61 12.71 2L12.71 4.29999 15.5 4.29999 16.25 6.70001 7.77 6.70001Z" fill="#000000"/><path d="M18.33 4 18.73 5.29999 19.7 5.29999 19.7 21.7 4.3 21.7 4.3 5.29999 5.27 5.29999 5.67 4 3 4 3 23 21 23 21 4 18.33 4Z" fill="#000000"/><path d="M17 10 7 10 7 11.3 17 11.3 17 10Z" fill="#000000"/><path d="M14.24 13.7 10.86 17.08 9.72 15.94C9.47 15.69 9.05 15.69 8.8 15.94 8.55 16.19 8.55 16.61 8.8 16.86L10.86 18.92 15.16 14.62C15.41 14.37 15.41 13.95 15.16 13.7 14.91 13.45 14.49 13.45 14.24 13.7Z" fill="#000000"/></svg>