<svg width="24" height="24" viewBox="0 0 24 24" xmlns="http://www.w3.org/2000/svg" xmlns:xlink="http://www.w3.org/1999/xlink" fill="none" overflow="hidden"><path d="M9.14999 8.56995 7.91999 11.98 9.22999 11.49C10.89 10.87 12.37 10.22 13.75 9.51001 15.13 8.79001 16.51 7.95995 17.97 6.94995L18.68 6.45996 18.02 5.91003C16.64 4.77003 15.34 3.81999 14.04 2.98999 12.74 2.15999 11.33 1.37999 9.71999 0.609985L8.44999 0.0100098 9.28999 3.20996C4.85999 2.76996 1.50999 4.33002 1.35999 4.40002L0.98999 4.57996 0.98999 10.41 1.94999 9.89001C1.97999 9.87001 4.89999 8.31006 9.13999 8.56006L9.14999 8.56995ZM2.29999 5.43005C3.32999 5.03005 6.38999 4.03 10.07 4.63L11.06 4.79004 10.44 2.42004C11.49 2.96004 12.45 3.50997 13.35 4.08997 14.39 4.74997 15.43 5.5 16.52 6.37 15.37 7.13 14.26 7.78999 13.16 8.35999 12.2 8.85999 11.2 9.32001 10.11 9.76001L10.95 7.43994 10.13 7.34998C9.46999 7.27998 8.83999 7.25 8.22999 7.25 5.53999 7.25 3.43999 7.88997 2.29999 8.33997L2.29999 5.43005Z" fill="#000000"/><path d="M23 13.58 22.04 14.1C22.04 14.1 19.07 15.6701 14.85 15.4301L16.08 12.02 14.77 12.51C13.11 13.13 11.63 13.78 10.25 14.49 8.86999 15.21 7.48999 16.04 6.02999 17.05L5.31999 17.54 5.97999 18.09C7.34999 19.23 8.64999 20.18 9.94999 21.01 11.25 21.84 12.66 22.62 14.27 23.39L15.54 23.99 14.7 20.79C19.14 21.23 22.48 19.67 22.63 19.6L23 19.42 23 13.58ZM21.7 18.5699C20.67 18.9699 17.6 19.97 13.93 19.37L12.94 19.21 13.56 21.58C12.51 21.04 11.55 20.49 10.65 19.91 9.60999 19.25 8.56999 18.5 7.47999 17.63 8.62999 16.87 9.73999 16.21 10.84 15.64 11.8 15.14 12.8 14.68 13.89 14.24L13.05 16.5601 13.87 16.65C17.47 17.04 20.29 16.22 21.69 15.67L21.69 18.5699 21.7 18.5699Z" fill="#000000"/></svg>