<svg width="24" height="24" viewBox="0 0 24 24" xmlns="http://www.w3.org/2000/svg" xmlns:xlink="http://www.w3.org/1999/xlink" fill="none" overflow="hidden"><path d="M9.09 18.13C8.39 19.27 8.8 20.75 9.92 21.4 10.28 21.61 10.68 21.7 11.07 21.7 11.91 21.7 12.73 21.26 13.16 20.45 13.69 19.45 14.11 17.49 14.37 16.22 14.61 15.04 14.77 13.87 14.88 12.7 13.93 13.39 13 14.12 12.11 14.93 11.15 15.8 9.68 17.15 9.08 18.12L9.09 18.13ZM13.14 15.77C13.13 15.84 13.11 15.9 13.1 15.97 12.93 16.79 12.49 18.95 12.02 19.85 11.8 20.26 11.39 20.41 11.08 20.41 10.9 20.41 10.73 20.36 10.57 20.28 10.33 20.14 10.15 19.91 10.08 19.63 10.01 19.35 10.05 19.06 10.2 18.82 10.73 17.96 12.37 16.48 12.99 15.92 13.04 15.88 13.09 15.83 13.14 15.79L13.14 15.77Z" fill="#000000"/><path d="M12 2C5.37 2 0 7.37 0 14L0 15 6 15 6 14C6 10.69 8.69 8 12 8 15.31 8 18 10.69 18 14L18 15 24 15 24 14C24 7.37 18.63 2 12 2ZM4.71 13.7 1.3 13.7C1.38 10.91 2.54 8.38002 4.37 6.52002L6.59 9.12C5.48 10.35 4.78 11.94 4.71 13.71L4.71 13.7ZM11.07 6.77002C9.75 6.94002 8.54 7.45998 7.54 8.22998L5.33 5.64001C6.93 4.36001 8.91 3.53003 11.07 3.34003L11.07 6.77002ZM12.37 6.71997 12.37 3.32001C14.75 3.40001 16.93 4.25001 18.67 5.64001L16.46 8.22998C15.32 7.34998 13.91 6.79997 12.38 6.71997L12.37 6.71997ZM19.29 13.7C19.22 11.94 18.52 10.34 17.41 9.10999L19.63 6.51001C21.46 8.37001 22.62 10.9 22.7 13.69L19.3 13.69 19.29 13.7Z" fill="#000000"/></svg>