<svg width="24" height="24" viewBox="0 0 24 24" xmlns="http://www.w3.org/2000/svg" xmlns:xlink="http://www.w3.org/1999/xlink" fill="none" overflow="hidden"><path d="M8.91 16.3 8.28 22 15.72 22 15.09 16.3 8.91 16.3Z" fill="#000000"/><path d="M9.49998 11 9.04999 15 14.95 15 14.5 11 9.49998 11Z" fill="#000000"/><path d="M23.7 21.08 22.15 16.3 16.4 16.3 17.03 22 23.04 22C23.52 22 23.85 21.54 23.71 21.08L23.7 21.08Z" fill="#000000"/><path d="M3.33999 11.69 2.26999 15 7.74999 15 8.18999 11 4.28999 11C3.85999 11 3.46999 11.28 3.33999 11.69Z" fill="#000000"/><path d="M0.3 21.08C0.15 21.53 0.489999 22 0.969999 22L6.98 22 7.61 16.3 1.86 16.3 0.309995 21.08 0.3 21.08Z" fill="#000000"/><path d="M20.66 11.69C20.53 11.28 20.14 11 19.71 11L15.81 11 16.25 15 21.73 15 20.66 11.69Z" fill="#000000"/><path d="M12 0.799988 10.23 3.86999 13.77 3.86999 12 0.799988Z" fill="#000000"/><path d="M17.85 3.22998 14.44 4.13998 16.94 6.64998 17.85 3.22998Z" fill="#000000"/><path d="M9.55999 4.13998 6.14999 3.22998 7.05999 6.64998 9.55999 4.13998Z" fill="#000000"/><path d="M17.21 9.08 20.28 9.08 17.21 7.31 17.21 9.08Z" fill="#000000"/><path d="M6.79 7.31 3.72 9.08 6.79 9.08 6.79 7.31Z" fill="#000000"/><path d="M12 5.08002C9.79 5.08002 8 6.87002 8 9.08002L9.3 9.08002C9.3 7.59002 10.51 6.38002 12 6.38002 13.49 6.38002 14.7 7.59002 14.7 9.08002L16 9.08002C16 6.87002 14.21 5.08002 12 5.08002Z" fill="#000000"/></svg>