<svg width="24" height="24" viewBox="0 0 24 24" xmlns="http://www.w3.org/2000/svg" xmlns:xlink="http://www.w3.org/1999/xlink" fill="none" overflow="hidden"><path d="M22.42 12.62 19.31 1.03003 0 6.20001 3.11 17.79 22.43 12.61 22.42 12.62ZM18.4 2.62 20.83 11.7 4.02 16.2 1.59 7.12 18.4 2.62Z" fill="#000000"/><path d="M19.33 15 14.59 16.27 15.05 16.61 14.21 19.21 16.42 17.6 18.63 19.21 17.79 16.61 20 15 19.33 15Z" fill="#000000"/><path d="M13.33 12.1 15.05 9.97998 17.6 10.96 16.11 8.65997 17.83 6.53998 15.19 7.25 13.7 4.95001 13.56 7.67999 10.92 8.39001 13.47 9.37 13.33 12.1Z" fill="#000000"/><path d="M6.6 13.3C6.21 13.4 5.97 13.81 6.07 14.21 6.17 14.55 6.47 14.77 6.8 14.77 6.86 14.77 6.93 14.76 6.99 14.74 7.39 14.64 7.63 14.23 7.52 13.83 7.42 13.42 7.01 13.19 6.6 13.3Z" fill="#000000"/><path d="M6.04 11.17C5.64 11.28 5.4 11.69 5.51 12.09 5.6 12.42 5.9 12.65 6.23 12.65 6.3 12.65 6.36 12.64 6.42 12.62 6.82 12.51 7.06 12.1 6.95 11.7 6.85 11.3 6.44 11.06 6.04 11.17Z" fill="#000000"/><path d="M5.47 9.04C5.07 9.15 4.83 9.56004 4.94 9.96004 5.03 10.3 5.33 10.52 5.66 10.52 5.73 10.52 5.79 10.51 5.86 10.49 6.26 10.39 6.49 9.98004 6.39 9.58004 6.28 9.18004 5.87 8.94 5.47 9.04Z" fill="#000000"/><path d="M5.09 8.39C5.16 8.39 5.22 8.38998 5.29 8.36998 5.69 8.25998 5.92 7.84999 5.82 7.44999 5.71 7.04999 5.3 6.80996 4.9 6.91996 4.5 7.02996 4.26 7.44001 4.37 7.84001 4.46 8.17001 4.76 8.39 5.09 8.39Z" fill="#000000"/><path d="M22.81 14.07 21.7 14.36 21.7 20.7 4.3 20.7 4.3 19.03 3.49 19.24 3 19.37 3 22 23 22 23 14.02 22.81 14.07Z" fill="#000000"/></svg>