<svg width="24" height="24" viewBox="0 0 24 24" xmlns="http://www.w3.org/2000/svg" xmlns:xlink="http://www.w3.org/1999/xlink" fill="none" overflow="hidden"><path d="M20.33 6.62 20.86 6.09003C21.25 5.70003 21.25 5.06999 20.86 4.67999L20.15 3.97003C19.76 3.58003 19.13 3.58003 18.74 3.97003L18.18 4.53003C17.98 4.73003 17.67 4.75999 17.43 4.60999 16.13 3.76999 14.63 3.20999 13.01 3.04999L13.01 1.90002C13.01 1.57002 13.28 1.29999 13.61 1.29999L14.61 1.29999C14.83 1.29999 15.01 1.12002 15.01 0.900024L15.01 0.400024C15.01 0.180024 14.83 0 14.61 0L9.40999 0C9.18999 0 9.00999 0.180024 9.00999 0.400024L9.00999 0.900024C9.00999 1.12002 9.18999 1.29999 9.40999 1.29999L10.41 1.29999C10.74 1.29999 11.01 1.57002 11.01 1.90002L11.01 3.04999C5.84999 3.55999 1.84999 7.99001 2.01999 13.32 2.18999 18.67 6.62999 22.98 11.98 23 17.33 23.02 22.02 18.54 22.02 13 22.02 10.91 21.37 8.97999 20.27 7.37 20.11 7.13 20.14 6.80999 20.34 6.60999L20.33 6.62ZM12 21.71C7.19999 21.71 3.29999 17.81 3.29999 13.01 3.29999 8.21001 7.19999 4.31 12 4.31 16.8 4.31 20.7 8.21001 20.7 13.01 20.7 17.81 16.8 21.71 12 21.71Z" fill="#000000"/><path d="M12.65 11.66 12.65 5.84003 11.35 5.84003 11.35 11.66C10.85 11.9 10.5 12.41 10.5 13.01 10.5 13.84 11.17 14.51 12 14.51 12.83 14.51 13.5 13.84 13.5 13.01 13.5 12.42 13.15 11.91 12.65 11.66Z" fill="#000000"/></svg>